<?xml version="1.0" standalone="no"?>
<!DOCTYPE svg PUBLIC "-//W3C//DTD SVG 20010904//EN"
 "http://www.w3.org/TR/2001/REC-SVG-20010904/DTD/svg10.dtd">
<svg version="1.0" xmlns="http://www.w3.org/2000/svg"
 width="553.000000pt" height="553.000000pt" viewBox="0 0 553.000000 553.000000"
 preserveAspectRatio="xMidYMid meet">
<metadata>
Created by potrace 1.14, written by Peter Selinger 2001-2017
</metadata>
<g transform="translate(0.000000,553.000000) scale(0.100000,-0.100000)"
fill="#000000" stroke="none">
<path d="M1190 4804 c0 -3 28 -73 61 -155 l62 -149 -331 -808 c-182 -444 -473
-1152 -646 -1574 -173 -421 -317 -776 -321 -788 l-7 -22 399 5 c423 4 481 10
663 60 377 106 616 344 700 699 80 343 37 862 -129 1533 -22 88 -38 161 -37
162 2 2 894 -2193 973 -2394 4 -10 -27 -13 -136 -13 l-141 0 0 -25 0 -25 520
0 520 0 0 25 0 24 -152 3 -152 3 -695 1722 -696 1722 -227 1 c-126 0 -228 -3
-228 -6z m214 -551 c166 -507 292 -1058 338 -1478 17 -159 17 -498 -1 -595
-83 -461 -368 -719 -881 -795 -135 -21 -770 -34 -770 -17 0 7 124 314 275 684
152 370 432 1054 623 1520 191 466 350 848 354 848 4 0 32 -75 62 -167z"/>
<path d="M4374 3644 c-471 -79 -866 -430 -999 -889 -47 -165 -59 -255 -59
-455 1 -254 37 -436 117 -595 98 -196 222 -304 421 -369 15 -5 4 -16 -55 -52
-149 -92 -236 -188 -303 -336 -47 -103 -61 -167 -61 -293 0 -132 17 -196 76
-285 72 -108 196 -187 361 -232 70 -19 108 -23 248 -23 197 0 304 17 495 80
212 69 363 157 497 287 159 156 250 322 311 568 21 84 21 101 24 1348 l4 1262
-498 -1 c-369 -1 -519 -5 -579 -15z m676 -176 c0 -642 -166 -1320 -410 -1672
-64 -93 -170 -196 -237 -229 -204 -104 -437 -2 -556 243 -136 279 -153 730
-42 1067 115 348 350 613 626 707 72 25 82 25 347 26 l272 0 0 -142z m-10
-2248 c-20 -195 -72 -359 -163 -512 -186 -312 -531 -508 -891 -508 -152 0
-264 42 -365 136 -157 145 -184 375 -71 610 88 182 324 364 474 364 309 0 570
214 770 631 100 208 185 480 232 738 l19 103 3 -723 c2 -491 -1 -761 -8 -839z"/>
</g>
</svg>
